<svg width="185" height="51" viewBox="0 0 185 51" fill="none" xmlns="http://www.w3.org/2000/svg">
    <path d="M60.333 0H19c-1.104 0-2 .896-2 2v15.667c0 1.104.896 2 2 2h41.333c1.104 0 2-.896 2-2V2c0-1.104-.896-2-2-2Z" fill="#EEE"></path>
    <path d="M1 51h52c1.104 0 2-.896 2-2V22.667c0-1.104-.896-2-2-2H1c-1.104 0-2 .896-2 2V49c0 1.104.896 2 2 2Z" fill="#D9D9D9"></path>
    <path d="M82 0H62c-1.104 0-2 .896-2 2v12c0 1.104.896 2 2 2h20c1.104 0 2-.896 2-2V2c0-1.104-.896-2-2-2Z" fill="currentColor"></path>
    <path d="M67.667 26.667H98c1.104 0 2 .896 2 2v16.667c0 1.104-.896 2-2 2H67.667c-1.104 0-2-.896-2-2V28.667c0-1.104.896-2 2-2Z" fill="#EEE"></path>
</svg>
