<svg width="185" height="51" viewBox="0 0 185 51" fill="none" xmlns="http://www.w3.org/2000/svg">
    <path d="M182.49 28.48c1.44-.22 2.51-1.44 2.51-2.87 0-1.42-1.05-2.64-2.48-2.87l-22.85-3.65c-4.02-.64-7.67 2.41-7.67 6.41 0 3.98 3.61 7.03 7.61 6.42l22.88-3.44Z" fill="currentColor"></path>
    <path d="M159.554 31.55h-.001c-3.779.576-7.178-2.306-7.178-6.05 0-3.761 3.436-6.645 7.236-6.04l22.849 3.65c1.253.202 2.165 1.268 2.165 2.5 0 1.239-.928 2.306-2.191 2.5h-.001l-22.879 3.44Z" stroke="#000" stroke-opacity=".1" stroke-width=".75"></path>
    <path d="M163 18.57 108.92 4.31C106.5 3.5 104 3 104 1v49c0-2 2.5-2.5 4.51-3.08L163 33.06V18.57Z" fill="#EEE"></path>
    <path fill-rule="evenodd" clip-rule="evenodd" d="M163 18.57 108.92 4.31c-.31-.1-.61-.2-.92-.29-2.08-.66-3.97-1.26-4-2.97V1c0-.55-.45-1-1-1H82c-.55 0-1 .45-1 1H0v49h81c0 .55.45 1 1 1h21c.55 0 1-.45 1-1v-.04c.03-1.79 2.08-2.36 3.95-2.89.19-.05.38-.11.56-.16L163 33.06V18.57Z" fill="url(#_868415490__g)" fill-opacity=".1"></path>
    <path d="M95 0h-6v51h6V0Z" fill="currentColor"></path>
</svg>
